<svg width="22" height="18" viewBox="0 0 22 18" fill="none" xmlns="http://www.w3.org/2000/svg">
<g clip-path="url(#clip0_237_4074)">
<path d="M16.5926 6.03017C17.3428 6.90776 19.574 8.57707 18.7555 9.42604C17.9956 10.2178 17.2648 11.4101 16.4074 12.2019C16.5731 12.9268 17.5766 13.8521 18.0735 12.8887C19.3401 11.5532 20.6944 10.2273 22 8.91094C20.899 8.05243 16.1639 2.30998 16.5926 6.03017ZM7.36581 12.2019C7.53144 12.9268 8.53499 13.8521 9.03189 12.8887C10.2985 11.5532 11.6528 10.2273 12.9584 8.91094C11.8574 8.05243 7.12224 2.30998 7.55093 6.03017C8.30115 6.90776 10.5323 8.57707 9.71391 9.42604C8.95394 10.2178 8.22321 11.4101 7.36581 12.2019ZM9.03189 17.6009C20.0416 6.20188 19.8663 11.5914 8.99292 0.278185C8.48627 -1.88716 -1.5589 9.31157 0.30204 8.92048C7.85297 5.00951 5.78742 -1.80131 13.3676 7.3847C17.4792 9.53097 9.74314 12.841 8.24269 15.8267C6.93711 14.2051 -3.30292 5.19074 1.09123 11.0763C2.49425 11.992 8.28167 19.8235 9.02215 17.6105L9.03189 17.6009Z" fill="#000000"/>
</g>
<defs>
<clipPath id="clip0_237_4074">
<rect width="18" height="22" fill="white" transform="translate(22) rotate(90)"/>
</clipPath>
</defs>
</svg>
